<svg class="icon" style="width: 1em;height: 1em;vertical-align: middle;fill: currentColor;overflow: hidden;" viewBox="0 0 1024 1024" version="1.1" xmlns="http://www.w3.org/2000/svg" p-id="10315"><path d="M512 0c282.758737 0 512 229.241263 512 512s-229.241263 512-512 512S0 794.758737 0 512 229.241263 0 512 0z m0.080842 493.460211h-95.663158l-6.629052 0.107789a200.461474 200.461474 0 0 0-193.859369 200.407579A60.631579 60.631579 0 0 0 276.48 754.526316h364.058947l3.880421-0.161684a47.562105 47.562105 0 0 0 43.654737-47.400421v-37.48379l-0.107789-6.305684a176.074105 176.074105 0 0 0-175.912421-169.741474z m131.368421 7.168h-26.731789l-1.697685 0.269473c-4.122947 1.293474-5.227789 7.221895-1.077894 9.728a181.436632 181.436632 0 0 1 88.98021 156.26779v38.642526l-0.188631 4.419368a48.747789 48.747789 0 0 1-8.623158 23.632843c-2.479158 3.503158 0 8.407579 4.338526 8.407578h63.676632l3.772631-0.161684a44.005053 44.005053 0 0 0 40.205474-43.789473V663.444211l-0.10779-6.117053a162.708211 162.708211 0 0 0-162.546526-156.698947z m-189.682526-257.482106a121.721263 121.721263 0 1 0 0 243.442527 121.721263 121.721263 0 0 0 0-243.442527z m174.08 57.074527a91.998316 91.998316 0 0 0-39.666526 8.407579 9.135158 9.135158 0 0 0-4.850527 11.317894c5.039158 13.635368 7.733895 28.456421 7.733895 43.951158a129.050947 129.050947 0 0 1-31.151158 84.291369 6.763789 6.763789 0 0 0 0.269474 9.10821 92.698947 92.698947 0 0 0 159.258947-65.050947 92.887579 92.887579 0 0 0-91.567158-92.025263z" fill="#8a7f71" p-id="10316"></path></svg>