<svg width="1768" height="1767" xmlns="http://www.w3.org/2000/svg" xmlns:xlink="http://www.w3.org/1999/xlink" xml:space="preserve" overflow="hidden"><defs><clipPath id="clip0"><rect x="962" y="300" width="1768" height="1767"/></clipPath></defs><g clip-path="url(#clip0)" transform="translate(-962 -300)"><path d="M1866.06 741.75C1699.65 741.75 1564.74 876.601 1564.74 1042.95 1564.74 1209.3 1699.65 1344.15 1866.06 1344.15 2032.47 1344.15 2167.37 1209.3 2167.37 1042.95 2167.37 876.601 2032.47 741.75 1866.06 741.75ZM1845.95 1384.28C1531.16 1384.28 1351 1493.46 1323.61 1699.76 1616.6 1975.26 2075.16 1975.26 2368.15 1699.76 2340.89 1493.46 2160.81 1384.28 1845.95 1384.28ZM1845.95 2067C1357.86 2067.1 962.106 1671.67 962 1183.77 961.95 952.292 1052.79 730.045 1214.97 564.829 1376.38 399.392 1596.54 304.236 1827.68 300L1846.1 300C2334.14 299.879 2729.88 695.27 2730 1183.13 2730.05 1414.66 2639.18 1636.95 2476.93 1802.17 2315.6 1967.51 2095.6 2062.65 1864.58 2067L1845.95 2067Z" fill="#333333" fill-rule="evenodd"/></g></svg>