<svg width="1964" height="1963" xmlns="http://www.w3.org/2000/svg" xmlns:xlink="http://www.w3.org/1999/xlink" xml:space="preserve" overflow="hidden"><g transform="translate(-1218 -256)"><path d="M2766.32 1003.86C2846.26 1034.04 2904 1115.93 2904 1211.52L2904 1394.18C2904 1489.71 2846.26 1571.6 2766.32 1601.9 2697.06 1799.44 2518.39 1941 2310.43 1941L2089.8 1941C1881.72 1941 1703.06 1799.38 1633.9 1601.9 1553.74 1571.66 1496 1489.71 1496 1394.25L1496 1211.58C1496 1140.99 1527.45 1077.92 1575.94 1037.68L1582.01 770.599C1560.57 761.597 1546.42 739.185 1546.42 714.195L1546.42 594.909C1546.82 561.141 1572.12 533.998 1603.19 534.001 1634.35 533.829 1659.79 561.04 1660.13 594.909L1660.13 714.38C1660.13 739.805 1645.37 761.774 1624.54 770.784L1629.82 1005.53C1631.12 1004.93 1632.44 1004.39 1633.79 1003.93 1703.06 806.452 1881.72 664.827 2089.74 664.827L2310.37 664.827C2518.56 664.827 2697.23 806.391 2766.27 1003.86ZM2714.94 1378.08 2714.94 1227.87C2714.94 1104.7 2620.81 1004.05 2505.67 1004.05L1894.44 1004.05C1779.3 1004.05 1685.23 1104.7 1685.23 1227.87L1685.23 1378.08C1685.23 1501.19 1779.36 1601.9 1894.44 1601.9L2505.73 1601.9C2620.87 1601.9 2715 1501.31 2715 1378.08L2714.94 1378.08ZM1973.81 1146.66C2017.81 1146.66 2053.52 1185.11 2053.52 1232.44L2053.52 1359.13C2053.52 1381.9 2045.12 1403.69 2030.19 1419.79 1998.99 1453.4 1948.69 1453.4 1917.49 1419.79 1902.59 1403.77 1894.21 1381.92 1894.21 1359.13L1894.21 1232.44C1894.21 1185.11 1929.87 1146.66 1973.81 1146.66ZM2427.89 1146.66C2471.95 1146.66 2507.6 1185.11 2507.6 1232.44L2507.6 1359.13C2507.6 1381.9 2499.2 1403.69 2484.27 1419.73 2453.07 1453.3 2402.82 1453.3 2371.63 1419.73 2356.72 1403.73 2348.32 1381.91 2348.29 1359.13L2348.29 1232.44C2348.29 1185.11 2383.95 1146.66 2427.95 1146.66L2427.89 1146.66Z" fill="#0D1626" fill-rule="evenodd"/></g></svg>