<svg class="icon" style="width: 1em;height: 1em;vertical-align: middle;fill: currentColor;overflow: hidden;" viewBox="0 0 1024 1024" version="1.1" xmlns="http://www.w3.org/2000/svg" p-id="5812"><path d="M691.2 972.8h-358.4a204.8 204.8 0 0 1-204.8-204.8V409.6a51.2 51.2 0 0 1 102.4 0v358.4a102.4 102.4 0 0 0 102.4 102.4h358.4a102.4 102.4 0 0 0 102.4-102.4V409.6a51.2 51.2 0 0 1 102.4 0v358.4a204.8 204.8 0 0 1-204.8 204.8zM915.456 332.8H108.544a51.2 51.2 0 0 1 0-102.4h806.912a51.2 51.2 0 0 1 0 102.4zM691.2 332.8a51.2 51.2 0 0 1-51.2-51.2 128 128 0 0 0-256 0 51.2 51.2 0 0 1-102.4 0 230.4 230.4 0 0 1 460.8 0 51.2 51.2 0 0 1-51.2 51.2zM396.8 819.2a51.2 51.2 0 0 1-51.2-51.2V409.6a51.2 51.2 0 0 1 102.4 0v358.4a51.2 51.2 0 0 1-51.2 51.2zM627.2 819.2a51.2 51.2 0 0 1-51.2-51.2V409.6a51.2 51.2 0 0 1 102.4 0v358.4a51.2 51.2 0 0 1-51.2 51.2z" p-id="5813"></path></svg>