<svg class="icon" style="width: 1em;height: 1em;vertical-align: middle;fill: currentColor;overflow: hidden;" viewBox="0 0 1024 1024" version="1.1" xmlns="http://www.w3.org/2000/svg" p-id="12463"><path d="M337.319 536.462l-151.016-82.505c-17.197-9.167-38.798-9.265-48.778 7.314-8.599 16.092-2.406 32.346 11.491 44.276l149.244 81.221c6.697 3.462 12.516 5.332 23.113 6.567 14.028-0.618 23.504-2.99 28.689-14.986 8.988-16.872 3.43-31.598-12.743-41.887z m361.537 334.995c-6.29-12.158-33.987-7.445-45.609-2l-137.752 63.667 0.764-2.86V520.126L923.177 311.49v99.474c0 17.961 6.68 32.703 23.617 32.703s28.444-14.742 28.444-32.703V274.578a33.962 33.962 0 0 0-4.047-16.091 28.802 28.802 0 0 0-2.78-7.818 35.109 35.109 0 0 0-17.7-17.343L498.07 35.84a37.79 37.79 0 0 0-31.094 0L22.267 239.649A37.742 37.742 0 0 0 0.294 278.56v446.984a43.87 43.87 0 0 0 17.684 30.46l450.397 247.385c3.576 3.332 8.501 4.876 13.377 4.226h4.438a35.534 35.534 0 0 0 18.188-3.105l181.85-84.618c16.806-7.802 23.876-26.136 15.652-42.114l-3.023-6.322zM483.653 85.61l411.08 179.167-412.218 213.106L82.18 268.84 483.653 85.626zM54.873 316.952L459.76 530.53v402.383L54.89 713.533V316.936z" fill="#2C2C2C" p-id="12464"></path><path d="M861.46 845.206c-89.397 0-162.54-73.143-162.54-162.54s73.143-162.539 162.54-162.539S1024 593.27 1024 682.667s-73.143 162.54-162.54 162.54z m0-300.698c-56.889 0-108.365 32.508-130.031 83.984-21.667 51.46-8.127 113.778 32.508 151.698s97.523 51.477 151.698 29.794a137.183 137.183 0 0 0 86.698-127.317c-2.714-75.858-65.015-138.16-140.873-138.16z m16.254 138.159l51.477 51.476c2.698 5.413 2.698 10.825 0 16.254-2.715 5.413-13.556 2.698-18.969-2.714L861.46 698.92l-51.476 48.762c0 2.714-2.698 2.714-8.127 2.714-2.698 0-5.413 0-8.127-2.714 0-2.715-2.698-5.413-2.698-8.127 0-2.715 0-5.413 2.698-8.127l51.476-48.762-48.762-51.477c-5.412-2.698-5.412-5.412-5.412-10.825 0-5.429 5.412-8.127 8.127-8.127 5.412 0 8.127 0 10.825 2.698l51.476 51.477 51.477-48.762c2.698-5.413 5.412-5.413 10.825-5.413 5.429 0 8.127 5.413 8.127 8.127 0 5.413 0 8.127-2.698 10.825l-51.477 51.477z" fill="#2C2C2C" p-id="12465"></path></svg>