<svg class="icon" style="width: 1.083984375em;height: 1em;vertical-align: middle;fill: currentColor;overflow: hidden;" viewBox="0 0 1110 1024" version="1.1" xmlns="http://www.w3.org/2000/svg" p-id="7879"><path d="M1056.29939 856.66278H128.720271c-20.488678 0-37.098305-16.679051-37.098305-37.254509V241.854915c0-20.575458 16.609627-37.263186 37.098305-37.263186h927.587797c20.48 0 37.098305 16.687729 37.098305 37.263186v577.553356c0 20.56678-16.609627 37.254508-37.106983 37.254509z" fill="#7F8499" p-id="7880"></path><path d="M536.853695 782.145085H648.174644v74.526373H536.853695z" fill="#707487" p-id="7881"></path><path d="M629.612475 167.33722c-20.488678 0-37.098305 16.679051-37.098306 37.254509 0-20.575458-16.618305-37.254508-37.106983-37.254509H165.818576V782.145085H555.407186c20.488678 0 37.098305 16.679051 37.098306 37.263186 0-20.584136 16.618305-37.263186 37.106983-37.263186h389.58861V167.33722H629.603797z" fill="#E4EAF8" p-id="7882"></path><path d="M202.925559 633.101017H54.514983c-20.497356 0-37.106983 16.679051-37.106983 37.254508v260.833628h222.624542V670.364203c0-20.584136-16.618305-37.263186-37.106983-37.263186z" fill="#FFFFFF" p-id="7883"></path><path d="M240.023864 931.189153H17.416678v37.263186c0 20.575458 16.609627 37.254508 37.106983 37.254508h148.410576c20.488678 0 37.098305-16.679051 37.098305-37.254508v-37.263186z" fill="#5B5D6E" p-id="7884"></path><path d="M740.924746 577.206237L703.817763 670.372881l-37.098305-93.157966V36.916068c0-10.28339 8.304814-18.622915 18.553491-18.622915h37.098305c10.24 0 18.553492 8.339525 18.553492 18.631593v540.290169z" fill="#FFDC64" p-id="7885"></path><path d="M722.371254 18.293153h-37.098305c-10.248678 0-18.553492 8.339525-18.553491 18.631593v55.886101h74.205288v-55.886101a18.596881 18.596881 0 0 0-18.553492-18.631593zM666.719458 558.574644v18.631593l37.098305 93.157966 37.106983-93.157966v-18.631593z" fill="#FAEBC8" p-id="7886"></path><path d="M1056.29939 187.131661h-19.707661v-19.803119a17.434034 17.434034 0 0 0-17.390644-17.460067H758.31539V36.924746c0-19.907254-16.123661-36.100339-35.944136-36.100339h-37.098305c-19.829153 0-35.944136 16.193085-35.944135 36.100339V149.868475H629.603797a54.150508 54.150508 0 0 0-37.106983 14.691796A54.159186 54.159186 0 0 0 555.407186 149.868475H165.818576a17.434034 17.434034 0 0 0-17.390644 17.468745v19.785763h-19.707661c-30.051797 0-54.497627 24.558644-54.497627 54.731932v373.777356H54.506305C24.463186 615.632271 0.017356 640.190915 0.017356 670.372881v298.088136c0 30.173288 24.445831 54.723254 54.497627 54.723254h148.410576c30.051797 0 54.497627-24.549966 54.497627-54.723254V874.131525h317.700339v1.162848c0 9.649898 7.775458 17.468746 17.381967 17.468746a17.434034 17.434034 0 0 0 17.399322-17.468746v-1.162848h446.394576c30.051797 0 54.497627-24.549966 54.497627-54.723254V241.854915c0-30.173288-24.445831-54.723254-54.497627-54.723254z m-332.765288 353.974237H684.101424V110.279593h39.424v430.826305z m-0.876475 34.937492l-18.831186 47.294915-18.839865-47.294915h37.662373zM685.272949 35.75322h37.098305c0.642169 0 1.162847 0.520678 1.162848 1.162848v38.426034H684.101424V36.924746c0-0.650847 0.520678-1.171525 1.154169-1.171526zM629.603797 184.797288h19.716339v392.417627c0 2.212881 0.42522 4.417085 1.240949 6.482441l37.106983 93.149288a17.390644 17.390644 0 0 0 16.141017 10.977627c7.115932 0 13.511593-4.338983 16.149695-10.977627l37.106983-93.149288c0.815729-2.065356 1.240949-4.269559 1.240949-6.491119V184.797288h243.495051v579.879051H629.603797c-6.942373 0-13.598373 1.310373-19.707661 3.705492V204.591729a19.777085 19.777085 0 0 1 19.707661-19.785763z m-74.205289 0a19.777085 19.777085 0 0 1 19.716339 19.794441v563.790102A53.994305 53.994305 0 0 0 555.407186 764.676339H257.423186V670.355525c0-30.173288-24.445831-54.723254-54.497627-54.723254H183.20922V184.797288H555.407186zM109.01261 241.854915a19.777085 19.777085 0 0 1 19.707661-19.79444h19.707661v393.571796H109.01261V241.854915zM54.514983 650.561085h148.410576a19.777085 19.777085 0 0 1 19.707661 19.803118v243.356204H34.807322V670.372881a19.777085 19.777085 0 0 1 19.716339-19.803118z m148.410576 337.685695H54.514983a19.777085 19.777085 0 0 1-19.716339-19.794441v-19.803119h187.834576v19.803119a19.777085 19.777085 0 0 1-19.707661 19.785763z m54.497627-188.641627H555.407186a19.777085 19.777085 0 0 1 19.716339 19.803118v19.785763h-317.700339v-39.588881z m818.592543 19.803118a19.777085 19.777085 0 0 1-19.716339 19.785763H609.904814v-19.785763a19.777085 19.777085 0 0 1 19.707661-19.803118h389.58861a17.434034 17.434034 0 0 0 17.390644-17.460068V222.069153h19.716339a19.777085 19.777085 0 0 1 19.707661 19.785762v577.553356z" fill="#000000" p-id="7887"></path><path d="M91.613288 874.131525h74.213966a17.434034 17.434034 0 0 0 17.390644-17.468745 17.434034 17.434034 0 0 0-17.399322-17.460068h-74.19661a17.434034 17.434034 0 0 0-17.399322 17.460068c0 9.649898 7.784136 17.468746 17.390644 17.468745zM91.613288 799.605153h74.213966a17.434034 17.434034 0 0 0 17.390644-17.460068 17.434034 17.434034 0 0 0-17.399322-17.468746h-74.19661A17.434034 17.434034 0 0 0 74.213966 782.145085c0 9.64122 7.784136 17.460068 17.390644 17.460068zM91.613288 725.087458h74.213966a17.434034 17.434034 0 0 0 17.390644-17.468746 17.434034 17.434034 0 0 0-17.399322-17.468746h-74.19661a17.434034 17.434034 0 0 0-17.399322 17.468746c0 9.649898 7.784136 17.468746 17.390644 17.468746zM128.807051 950.983593h-0.182237a17.355932 17.355932 0 0 0-17.303865 17.468746 17.434034 17.434034 0 1 0 34.876746 0 17.425356 17.425356 0 0 0-17.381966-17.468746zM258.586034 277.955254h241.160678a17.434034 17.434034 0 0 0 17.399322-17.468746 17.434034 17.434034 0 0 0-17.390644-17.468745H258.577356a17.434034 17.434034 0 0 0-17.390644 17.468745c0 9.649898 7.792814 17.468746 17.399322 17.468746zM499.75539 317.544136H388.434441a17.434034 17.434034 0 0 0-17.390644 17.468745c0 9.64122 7.792814 17.460068 17.399322 17.460068h111.312271a17.434034 17.434034 0 0 0 17.390644-17.460068 17.434034 17.434034 0 0 0-17.390644-17.468745zM258.586034 352.472949h55.651797a17.434034 17.434034 0 0 0 17.390644-17.460068 17.425356 17.425356 0 0 0-17.399322-17.468745h-55.643119a17.434034 17.434034 0 0 0-17.399322 17.468745c0 9.64122 7.792814 17.460068 17.399322 17.460068zM258.586034 426.999322h92.750102a17.434034 17.434034 0 0 0 17.399322-17.468746 17.425356 17.425356 0 0 0-17.399322-17.468745H258.577356a17.434034 17.434034 0 0 0-17.390644 17.468745c0 9.649898 7.792814 17.468746 17.399322 17.468746z" fill="#000000" p-id="7888"></path></svg>