<svg width="2448" height="2449" xmlns="http://www.w3.org/2000/svg" xmlns:xlink="http://www.w3.org/1999/xlink" xml:space="preserve" overflow="hidden"><g transform="translate(-976 -13)"><path d="M3154.92 1788.13 3296 1788.13 3296 2334 2750.38 2334 2750.38 2192.86 3154.92 2192.86ZM1104 1788.13 1245.08 1788.13 1245.08 2192.86 1652.79 2192.86 1652.79 2334 1104 2334ZM2750.38 141 3296 141 3296 690.042 3154.92 690.042 3154.92 282.141 2750.38 282.141ZM1104 141 1652.79 141 1652.79 282.141 1245.08 282.141 1245.08 690.042 1104 690.042Z" fill="#C55A11" fill-rule="evenodd"/><path d="M1804 1078.6 2138.6 1078.6 2138.6 744 2261.4 744 2261.4 1078.6 2596 1078.6 2596 1201.4 2261.4 1201.4 2261.4 1536 2138.6 1536 2138.6 1201.4 1804 1201.4Z" fill="#C55A11" fill-rule="evenodd"/><text fill="#525252" font-family="Microsoft YaHei,Microsoft YaHei_MSFontService,sans-serif" font-weight="700" font-size="403" transform="matrix(1 0 0 1 1393.33 2012)">添加图片</text></g></svg>