<svg width="2076" height="2077" xmlns="http://www.w3.org/2000/svg" xmlns:xlink="http://www.w3.org/1999/xlink" xml:space="preserve" overflow="hidden"><g transform="translate(-1162 -199)"><path d="M3194 1037.35C3194 1003 3166.01 975.042 3131.65 975.042 3111.52 975.042 3093.6 984.608 3082.3 999.325L3082.06 999.079C3054.56 1033.42 3011.35 1027.04 2994.17 1022.87 2834.6 903.661 2783.78 565.647 2777.4 443.738L2776.66 443.738C2772 413.812 2746.22 391 2714.8 391 2681.41 391 2654.16 417.246 2652.44 450.115L2651.95 450.115C2652.44 456.739 2655.14 508.986 2666.44 583.064L1733.56 583.064C1745.1 508.986 1748.05 456.493 1748.29 450.115L1746.33 450.115C1744.61 417.246 1717.36 391 1683.97 391 1649.36 391 1621.37 418.964 1621.37 453.549 1621.37 455.511 1621.37 457.718 1621.62 459.681 1612.05 592.875 1559.02 908.565 1405.83 1023.12 1389.14 1027.28 1345.68 1033.66 1318.19 999.324L1317.94 999.569C1306.65 984.606 1288.48 975.041 1268.35 975.041 1233.98 975.041 1206 1003 1206 1037.34 1206 1052.55 1211.4 1066.53 1220.48 1077.33L1219.99 1077.57C1265.65 1134.48 1327.03 1151.9 1379.32 1151.9 1409.02 1151.9 1436.02 1146.26 1455.42 1139.39L1469.9 1132.03C1512.86 1102.59 1548.7 1063.1 1579.64 1018.95L1579.64 1022.62 1622.6 1022.62 1622.6 1958.66 1457.62 1958.66 1457.62 1959.39C1457.62 1959.39 1457.38 1959.39 1457.38 1959.39 1423.01 1959.39 1395.02 1987.36 1395.02 2021.7 1395.02 2056.04 1423.01 2084 1457.38 2084 1457.38 2084 1457.62 2084 1457.62 2084L1457.62 2084 2965.93 2084C2999.81 2083.26 3027.06 2055.79 3027.06 2021.7 3027.06 1987.6 2999.81 1960.13 2965.93 1959.39L2965.93 1958.41 2777.39 1958.41 2777.39 1022.62 2823.3 1022.62C2853.5 1065.31 2888.6 1103.32 2930.09 1131.78L2944.57 1139.14C2963.97 1146.25 2990.72 1151.65 3020.67 1151.65 3072.96 1151.65 3134.09 1134.48 3180 1077.32L3179.51 1077.08C3188.59 1066.29 3193.99 1052.3 3193.99 1037.34ZM2274.63 708.656 2482.81 708.656 2482.81 897.04 2274.63 897.04 2274.63 708.656ZM1936.83 708.656 2148.94 708.656 2148.94 897.04 1936.83 897.04 1936.83 708.656ZM1708.77 708.656 1811.14 708.656 1811.14 897.04 1646.9 897.04C1674.15 834.491 1694.04 769.489 1708.77 708.656ZM2651.71 1958.66 1748.3 1958.66 1748.3 1022.63 2651.71 1022.63 2651.71 1958.66ZM2608.5 897.037 2608.5 708.652 2691.23 708.652C2705.96 769.484 2725.6 834.732 2752.85 897.037L2608.5 897.037Z" fill="#7F6000" fill-rule="evenodd"/></g></svg>