<svg width="2076" height="2077" xmlns="http://www.w3.org/2000/svg" xmlns:xlink="http://www.w3.org/1999/xlink" xml:space="preserve" overflow="hidden"><g transform="translate(-1162 -199)"><g><g><g><path d="M562.496 960.991 562.496 959.243C629.494 963.03 662.411 932.735 662.411 869.232 662.411 831.655 647.846 798.447 617.551 768.152 588.13 738.731 549.679 716.884 501.906 702.901 455.007 689.21 413.934 685.423 378.978 692.706L378.978 776.308C411.021 764.365 443.355 763.491 477.146 773.687 528.414 789.417 555.213 816.799 555.213 858.163 555.213 901.275 521.132 913.218 454.133 893.993L412.769 881.175 412.769 958.369 457.629 971.186C493.458 981.382 520.84 995.947 541.231 1013.42 561.331 1030.9 570.652 1051.88 570.652 1074.01 570.652 1096.15 562.496 1110.72 545.892 1118 529.288 1125.28 506.275 1124.41 478.02 1116.25 433.16 1103.44 393.543 1079.55 360.627 1045.47L360.627 1134.6C391.795 1160.24 434.034 1180.63 485.593 1196.07 544.435 1213.55 590.169 1213.55 625.125 1198.69 660.081 1182.96 677.558 1152.66 677.558 1106.93 677.558 1076.64 667.363 1048.09 646.39 1021.58 625.125 994.782 597.452 974.682 562.496 960.991Z" fill="#7F6000" transform="matrix(1 0 0 1.13831 1282 369)"/><path d="M917.879 0 0 229.543 0 1384.25 917.879 1613.79 1835.76 1384.25 1835.76 229.543 917.879 0ZM1584.08 907.684C1584.08 994.782 1561.06 1070.23 1514.46 1133.44 1467.56 1196.65 1406.97 1236.27 1333.56 1252.87L1171.89 1288.7 1171.89 723.292 1334.43 687.463C1500.77 650.759 1584.08 724.166 1584.08 907.684ZM1545.63 308.484 917.879 465.494 290.132 308.484 917.879 151.475 1545.63 308.484ZM146.814 1269.48 146.814 424.129 917.879 616.969 917.879 1462.31 146.814 1269.48Z" fill="#7F6000" transform="matrix(1 0 0 1.13831 1282 369)"/><path d="M1325.4 787.378 1271.22 799.321 1271.22 1167.23 1326.28 1155.29C1374.05 1145.09 1410.75 1119.46 1438.14 1078.97 1465.81 1038.48 1478.63 989.83 1478.63 932.153 1478.63 876.223 1464.94 834.859 1436.39 810.099 1407.84 785.63 1371.14 778.347 1325.4 787.378Z" fill="#7F6000" transform="matrix(1 0 0 1.13831 1282 369)"/></g></g></g></g></svg>