<svg width="541" height="540" xmlns="http://www.w3.org/2000/svg" xmlns:xlink="http://www.w3.org/1999/xlink" xml:space="preserve" overflow="hidden"><defs><clipPath id="clip0"><rect x="308" y="74" width="541" height="540"/></clipPath></defs><g clip-path="url(#clip0)" transform="translate(-308 -74)"><path d="M200.34 264.6C183.06 264.6 169.02 250.56 169.02 233.28 169.02 216 183.06 201.96 200.34 201.96 217.62 201.96 231.66 216 231.66 233.28 231.39 250.56 217.35 264.6 200.34 264.6ZM337.5 264.6C320.22 264.6 306.18 250.56 306.18 233.28 306.18 216 320.22 201.96 337.5 201.96 354.78 201.96 368.82 216 368.82 233.28 368.28 250.56 354.51 264.6 337.5 264.6ZM515.43 288.9C530.55 288.9 540 277.02 540 261.63L540 191.7C540 176.58 530.55 164.43 515.43 164.43 500.31 164.43 490.86 176.58 490.86 191.7L490.86 261.63C490.86 276.75 500.31 288.9 515.43 288.9ZM24.57 164.43C9.45 164.43 0 176.58 0 191.7L0 261.63C0 276.75 9.45 288.9 24.57 288.9 39.69 288.9 49.14 277.02 49.14 261.63L49.14 191.7C49.14 176.58 39.69 164.43 24.57 164.43ZM374.49 44.28 163.62 44.28C115.02 44.28 75.33 83.97 75.33 132.57L75.33 334.26C75.33 382.86 115.02 422.55 163.62 422.55L253.26 422.55C269.19 422.55 279.18 407.43 279.18 393.39 279.18 380.7 277.29 366.66 255.15 362.34L254.34 362.07 157.14 362.07C144.99 362.07 135.27 352.35 135.27 340.2L135.27 126.63C135.27 114.48 144.99 104.76 157.14 104.76L380.7 104.76C392.85 104.76 402.57 114.48 402.57 126.63L402.57 258.39C402.57 269.73 412.29 286.47 432.81 286.47 452.25 286.47 462.78 269.46 462.78 257.31L462.78 132.57C462.78 83.97 423.09 44.28 374.49 44.28ZM407.97 316.71C406.89 313.74 403.92 311.85 400.68 311.85L367.74 311.85C364.5 311.85 361.8 313.74 360.45 316.71L285.66 505.17C284.58 507.6 285.12 510.3 286.47 512.46 287.82 514.62 290.25 515.97 292.95 515.97L324 515.97C327.24 515.97 330.21 514.08 331.29 510.84L348.84 464.4 420.39 464.4 437.94 510.84C439.02 513.81 441.99 515.97 445.23 515.97L476.55 515.97C479.25 515.97 481.41 514.62 483.03 512.46 484.38 510.3 484.65 507.6 483.84 505.17L407.97 316.71ZM384.21 366.93C387.18 374.49 394.74 394.2 407.16 426.33L361.8 426.33 376.11 388.26C380.16 377.73 382.86 370.44 384.21 366.93ZM526.77 312.39 498.15 312.39C493.83 312.39 490.32 315.9 490.32 320.22L490.32 508.14C490.32 512.46 493.83 515.97 498.15 515.97L526.77 515.97C531.088 515.97 534.6 512.46 534.6 508.14L534.6 320.22C534.6 315.9 531.088 312.39 526.77 312.39Z" fill="#7F6000" transform="matrix(1.00185 0 0 1 308 74)"/></g></svg>