<svg width="2088" height="2087" xmlns="http://www.w3.org/2000/svg" xmlns:xlink="http://www.w3.org/1999/xlink" xml:space="preserve" overflow="hidden"><defs><clipPath id="clip0"><rect x="1122" y="194" width="2088" height="2087"/></clipPath></defs><g clip-path="url(#clip0)" transform="translate(-1122 -194)"><path d="M3179.25 1484.89 3163.06 1547.81C3030.88 1972.58 2634.48 2281 2166 2281 2166 2112.43 2501.88 1929.06 2545.16 1847.19 2582.95 1775.39 3036.38 1569.01 3173.75 1488.22ZM1501.64 1332.36 1501.64 1427.23 1596.55 1427.23 1596.55 1332.36ZM3206.12 1160.69 3210 1237.5C3210 1273.52 3208.17 1309.11 3204.61 1344.19L3195.38 1404.65 3183.13 1389.87C3152.25 1356.89 3099.81 1314.96 3025.78 1264.06 3057.01 1225.55 3100.85 1202.31 3157.42 1194.24 3171.99 1192.11 3184.18 1186.3 3194 1176.75ZM1577.56 1142.64 1311.82 1408.25 1330.8 1427.23 1596.55 1161.61ZM1596.55 1047.77 1936.41 1427.23 2450.73 1427.23 2110.86 1047.77ZM2071.09 858.046 2071.09 952.909 2166 952.909 2166 858.046ZM2071.09 573.455 2106.96 613.497 1881.27 839.073 1900.25 858.046 2124.89 633.519 2410.96 952.909 2925.27 952.909 2585.4 573.455 2147.02 573.455ZM2166 194C2670.51 194 3091.44 551.693 3188.79 1027.2L3203.11 1120.98 3185.5 1119.82C3137.33 1117.13 3057.9 1115.79 2947.2 1115.79 2694.07 1115.79 2604.58 1165.21 2678.6 1264.06 3133.03 1421.06 3145.46 1518.77 2715.81 1557 2071.57 1614.39 1857.83 1896.33 1857.83 1929.15 1857.83 1951.16 1769.75 2005.42 1593.6 2092.03 1753.34 2153.12 1944.2 2216.11 2166 2281 1589.41 2281 1122 1813.81 1122 1237.5 1122 661.191 1589.41 194 2166 194Z" fill="#7F6000" fill-rule="evenodd"/></g></svg>