<svg class="icon" style="width: 1.5517578125em;height: 1em;vertical-align: middle;fill: currentColor;overflow: hidden;" viewBox="0 0 1589 1024" version="1.1" xmlns="http://www.w3.org/2000/svg" p-id="2369"><path d="M158.946836 699.74603h21.409385a10.509327 10.509327 0 0 1 10.374592 10.441959 10.361119 10.361119 0 0 1-10.374592 10.455434h-21.409385v21.086021a10.522801 10.522801 0 0 1-10.590168 10.239857 10.361119 10.361119 0 0 1-10.603642-10.239857v-21.099495H116.357114a10.509327 10.509327 0 0 1-10.388066-10.44196c0-5.766656 4.554042-10.44196 10.374592-10.441959h21.42286V678.660008a10.522801 10.522801 0 0 1 10.590168-10.239857c5.847497 0 10.590168 4.500148 10.590168 10.239857v21.099495z m1398.751017-83.549151v-21.099495a10.347645 10.347645 0 0 0-10.590168-10.239857 10.522801 10.522801 0 0 0-10.603642 10.239857v21.099495h-21.395912a10.347645 10.347645 0 0 0-10.388065 10.44196c0 5.604974 4.66183 10.44196 10.388065 10.44196h21.395912v21.099495c0 5.739709 4.756144 10.239857 10.603642 10.239857a10.509327 10.509327 0 0 0 10.590168-10.239857v-21.099495h21.409386a10.374592 10.374592 0 0 0 10.388065-10.44196 10.522801 10.522801 0 0 0-10.388065-10.44196h-21.409386zM787.795328 960.848914h-533.550453a20.951287 20.951287 0 0 1-21.126442-20.883919c0-11.533313 9.606603-20.883919 21.139916-20.883919h96.106449a82.080539 82.080539 0 0 1-11.277317-41.673524V271.437056c0.026947-46.146725 38.03568-83.535677 84.85608-83.441362h63.500588v-20.991707c0.026947-46.160198 38.03568-83.535677 84.856079-83.454837h508.462803c46.833873-0.107788 84.869553 37.294638 84.869554 83.454837v605.957022a82.12096 82.12096 0 0 1-11.304264 41.673524h117.246365c11.721942 0 21.207283 9.269765 21.207283 20.883919 0 11.533313-9.431447 20.883919-21.19381 20.883919H1017.275917v21.005181a82.12096 82.12096 0 0 1-11.304263 41.66005h11.37163c11.654574 0 21.126442 9.283239 21.126443 20.88392 0 11.533313-9.606603 20.897393-21.139916 20.897392h-111.493182a41.201952 41.201952 0 0 1-6.507699 50.862449 42.710983 42.710983 0 0 1-59.930111 0l-51.603491-50.862449z m77.472604-41.767838h67.407902c23.309149 0 42.212464-18.593425 42.212464-41.8891V270.453491a40.743853 40.743853 0 0 0-40.905535-40.689959H422.394109a40.797747 40.797747 0 0 0-40.905535 40.689959v606.738485c0 23.12052 19.078471 41.875626 42.19899 41.875626h321.706671l-10.886585-10.75185a41.282793 41.282793 0 0 1-11.02132-40.380068l-20.008142-19.738672c-62.328394 45.729046-149.90612 36.324546-200.782041-21.557594a144.718824 144.718824 0 0 1 7.006218-198.949646c54.998812-54.405978 143.31758-57.599197 202.210232-7.329582 58.906126 50.283088 68.310626 136.890722 21.530647 198.302918l20.035089 19.738672a42.657089 42.657089 0 0 1 40.959429 10.846165l70.857117 69.819657z m152.007985-104.446543h63.770058c23.322622-0.121261 42.172043-18.782054 42.19899-41.767839v-605.768393c0-23.133993-18.916789-41.767839-42.19899-41.767839H572.003812c-23.309149 0.134735-42.172043 18.782054-42.172044 41.767839v20.883919h402.588069c46.833873-0.094314 84.85608 37.294638 84.85608 83.454836v543.197477zM270.210968 46.995555H301.806317c8.892508 0 16.100828 6.952324 16.100828 15.669676 0 8.649985-7.208321 15.669676-16.100828 15.669676h-31.581875v31.123777c0 8.757773-7.060112 15.871779-15.898726 15.871778a15.885252 15.885252 0 0 1-15.898726-15.871778v-31.123777h-31.568401a15.844832 15.844832 0 0 1-16.100829-15.669676c0-8.649985 7.194847-15.669676 16.100829-15.669676h31.581875v-31.123776c0-8.757773 7.046639-15.871779 15.898725-15.871779 8.757773 0 15.898726 7.100533 15.898726 15.871779v31.123776zM21.19381 939.964995c0-11.533313 9.593129-20.883919 21.126442-20.883919h127.284119c11.668048 0 21.139916 9.269765 21.139916 20.883919 0 11.519839-9.606603 20.883919-21.139916 20.883919H42.320252a20.951287 20.951287 0 0 1-21.126442-20.883919z m668.352783-135.017906a103.395611 103.395611 0 0 0 0.026947-147.763834c-41.390581-40.81122-108.529013-40.784273-149.90612 0.040421a103.395611 103.395611 0 0 0 0 147.709939c41.390581 40.797747 108.488592 40.797747 149.879173 0zM466.250339 313.326156c0-11.533313 9.471868-20.883919 21.166863-20.883919H720.562582c11.721942 0 21.19381 9.337133 21.193809 20.883919 0 11.533313-9.485341 20.883919-21.180336 20.883919H487.430675a20.978234 20.978234 0 0 1-21.193809-20.883919z m0 104.43307c0-11.533313 9.431447-20.883919 21.045601-20.883919h339.397372c11.60068 0 21.032128 9.269765 21.032128 20.883919 0 11.533313-9.431447 20.883919-21.045602 20.883919h-339.397371a20.910866 20.910866 0 0 1-21.032128-20.883919z m0 104.446543c0-11.533313 9.458394-20.883919 21.153389-20.883919h148.437509c11.681521 0 21.153389 9.269765 21.153389 20.883919a21.018654 21.018654 0 0 1-21.153389 20.883919H487.403728a20.951287 20.951287 0 0 1-21.153389-20.883919zM63.581429 396.875307C28.469498 396.875307 0 368.823487 0 334.210075s28.469498-62.665231 63.581429-62.665231c35.111931 0 63.581429 28.051819 63.581429 62.651758 0 34.626885-28.469498 62.678705-63.594903 62.678705z m0-31.339353c17.555966 0 31.797451-14.012436 31.797451-31.325879 0-17.313443-14.241486-31.339352-31.797451-31.339352s-31.797451 14.02591-31.797451 31.339352c0 17.299969 14.241486 31.325879 31.797451 31.325879z m1313.975779-93.99111c-35.125405 0.013473-63.608376-28.038346-63.608376-62.665231s28.482971-62.678705 63.608376-62.651758c35.098458 0 63.554482 28.051819 63.554482 62.651758 0 34.599938-28.456024 62.651758-63.554482 62.651758z m0-31.339352c17.555966 0 31.783978-14.012436 31.783978-31.325879 0-17.299969-14.228012-31.325879-31.783978-31.325879s-31.797451 14.012436-31.797451 31.325879c0 17.299969 14.241486 31.325879 31.797451 31.325879z" p-id="2370"></path></svg>