<svg width="720" height="720" xmlns="http://www.w3.org/2000/svg" xmlns:xlink="http://www.w3.org/1999/xlink" xml:space="preserve" overflow="hidden"><g transform="translate(-280 0)"><path d="M361.6 151.2 361.6 554.4C361.6 554.4 416.8 514.8 496 514.8 575.2 514.8 630.4 554.4 630.4 554.4L630.4 156C630.4 156 575.2 110.4 496 110.4 416.8 110.4 361.6 151.2 361.6 151.2ZM650.8 151.2 650.8 554.4C650.8 554.4 706 514.8 785.2 514.8 864.4 514.8 919.6 554.4 919.6 554.4L919.6 156C919.6 156 864.4 110.4 785.2 110.4 706 110.4 650.8 151.2 650.8 151.2ZM319.6 190.8 340 190.8 340 577.2 588.4 577.2 588.4 597.6 691.6 597.6 691.6 577.2 940 577.2 940 190.8 960.4 190.8 960.4 597.6 712 597.6 713.2 618 568 618 568 597.6 319.6 597.6 319.6 190.8Z" fill="#333333"/></g></svg>