<svg class="icon" style="width: 1em;height: 1em;vertical-align: middle;fill: currentColor;overflow: hidden;" viewBox="0 0 1024 1024" version="1.1" xmlns="http://www.w3.org/2000/svg" p-id="8563"><path d="M513 907.6c-6.7 0-13.4-1.5-19.6-4.4l-0.3-0.1-311.3-156.2c-14.8-7.4-24.4-22.8-24.4-39.1V542.9l-62.1-31c-10.5-5-18.4-13.9-22.2-25.1-3.9-11.2-3.1-23.7 2.1-34.1l0.4-0.9 1-1.5L162.9 296c4.8-8.3 11.8-14.6 20.7-18.8l309.5-154.5c12.8-6.5 27.7-6.5 39.8 0.1l311.6 155.4 0.4 0.2c7.9 4.6 14.1 10.8 18.1 18l87 154.7c11.5 21.4 4.1 47.7-16.8 59.9l-1 0.6-1.7 0.7c-0.2 0.1-0.5 0.2-0.7 0.3l-0.7 0.4-60.1 29.9v164.9c0 18-10.8 34-27.5 40.9L532.6 903.2c-6.1 2.9-12.8 4.4-19.6 4.4z m-6.5-31.4c4.2 1.9 9 1.9 13 0l309.8-154.9 0.6-0.2c4.6-1.8 9.2-6.6 9.2-13.2V524.4l76.1-38.2c1.4-0.8 2.7-1.3 3.7-1.7 6.3-4.2 8.3-12.3 4.7-19.1l-86.9-154.7c-1.2-2.3-3.4-4.4-6.4-6.2L519.1 149.3l-0.3-0.2c-3.5-1.9-8-1.8-12.1 0.2l-0.1 0.1-309.9 154.8-0.2 0.1c-3.4 1.6-5.8 3.8-7.6 6.7l-86.7 155.1-0.5 0.8c-1.3 3.1-1.4 6.8-0.3 10.2 1.2 3.5 3.7 6.3 6.8 7.8l0.3 0.2 78.8 39.4v183.4c0 4.9 3.2 10 7.9 12.3l311.3 156z" fill="#595757" p-id="8564"></path><path d="M498 136h30v753.6h-30z" fill="#606060" p-id="8565"></path><path d="M605.4 647.1c-5.5 0-10.7-3-13.4-8.2l-84.9-166c-1.8-3.5-2.1-7.7-0.9-11.4 1.2-3.8 3.9-6.9 7.4-8.7l317.8-162.6c7.4-3.8 16.4-0.8 20.2 6.5l84.9 166c1.8 3.5 2.1 7.7 0.9 11.4-1.2 3.8-3.9 6.9-7.4 8.7L612.2 645.5c-2.2 1.1-4.5 1.6-6.8 1.6z m-64.8-174.5L611.9 612 903 463l-71.3-139.3-291.1 148.9z" fill="#595757" p-id="8566"></path><path d="M429 647.1c-2.3 0-4.6-0.5-6.8-1.6L104.3 482.9c-3.5-1.8-6.2-5-7.4-8.7-1.2-3.8-0.9-7.9 0.9-11.4l84.9-166c1.8-3.5 5-6.2 8.7-7.4 3.8-1.2 7.9-0.9 11.4 0.9l317.8 162.6c3.5 1.8 6.2 5 7.4 8.7 1.2 3.8 0.9 7.9-0.9 11.4l-84.9 166c-2.5 5.2-7.8 8.1-13.2 8.1zM131.3 463l291.2 149 71.3-139.3-291.2-149L131.3 463z" fill="#595757" p-id="8567"></path></svg>