<svg class="icon" style="width: 1.060546875em;height: 1em;vertical-align: middle;fill: currentColor;overflow: hidden;" viewBox="0 0 1086 1024" version="1.1" xmlns="http://www.w3.org/2000/svg" p-id="5128"><path d="M597.354434 221.432242c0-14.460121 1.427394-28.547879 3.537454-42.356363H254.345464c-2.172121-15.018667-4.406303-29.230545-6.578424-42.697697L243.360737 103.330909a256.682667 256.682667 0 0 0-4.437333-25.258667c-1.458424-5.182061-3.258182-11.605333-5.492364-19.083636a65.349818 65.349818 0 0 0-11.015758-21.317818 59.981576 59.981576 0 0 0-20.914424-16.818424C192.719282 16.321939 180.989828 14.118788 166.250434 14.118788H55.099888C38.188373 14.118788 24.845343 18.990545 14.915646 28.70303A49.648485 49.648485 0 0 0 0.021101 65.660121c0 7.478303 0.930909 15.732364 2.792727 24.700121 3.723636 18.090667 13.653333 34.226424 28.082424 45.459394 8.005818 5.833697 17.687273 8.781576 27.523879 8.378182h82.540606c22.031515 116.084364 43.690667 232.261818 64.946424 348.470303l15.949576 86.419394c4.778667 25.786182 8.812606 47.259152 12.101818 64.48097 3.289212 17.221818 5.337212 28.113455 6.11297 32.581818 2.172121 11.201939 5.275152 23.210667 9.309091 35.964121 4.033939 12.598303 9.371152 24.389818 15.918545 35.250424 6.640485 10.891636 14.894545 19.704242 24.824243 26.375758 9.898667 6.795636 22.217697 10.115879 36.864 10.115879h576.853333c20.542061 0 34.319515-5.430303 41.270303-16.228849 7.168-11.574303 10.829576-25.072485 10.488242-38.756848 0-30.657939-17.656242-45.986909-52.844606-45.986909H347.901828l-16.508121-100.972606h578.001454c21.224727 0 39.253333-5.895758 53.899637-17.439031 14.677333-11.574303 26.779152-32.333576 36.336484-62.277818 3.723636-12.163879 9.060848-28.392727 15.825455-48.15903A265.867636 265.867636 0 0 1 868.869585 498.191515c-149.721212 0-271.515152-124.152242-271.515151-276.790303m379.190303 4.840727a26.934303 26.934303 0 0 1-26.220606 22.838303h-54.30303v55.358061a27.213576 27.213576 0 0 1-22.434909 26.748121 12.008727 12.008727 0 0 1-9.433213 0 27.151515 27.151515 0 0 1-22.434909-26.748121V249.080242h-54.30303a26.934303 26.934303 0 0 1-26.220606-22.838303 12.691394 12.691394 0 0 1 0-9.619394 26.934303 26.934303 0 0 1 26.220606-22.869333h54.30303V138.395152c0-13.560242 9.774545-24.358788 22.434909-26.748122a12.008727 12.008727 0 0 1 9.433213 0c12.877576 2.172121 22.341818 13.436121 22.434909 26.748122v55.35806h54.30303c13.312 0 23.893333 9.929697 26.220606 22.838303 1.272242 3.10303 1.272242 6.547394 0 9.619394M868.869585 0c-119.963152 0-217.212121 99.141818-217.212121 221.432242 0 122.259394 97.24897 221.401212 217.212121 221.401213s217.212121-99.141818 217.212122-221.401213C1086.081707 99.141818 988.832737 0 868.869585 0m26.717091 846.134303a96.690424 96.690424 0 0 0-33.016242-21.783273 105.409939 105.409939 0 0 0-79.809939 0c-12.163879 4.964848-23.179636 12.412121-32.488728 21.783273-9.309091 9.588364-16.756364 20.790303-22.000485 33.171394-5.523394 12.722424-8.254061 26.189576-8.25406 40.401455 0 14.180848 2.730667 27.67903 8.25406 40.432484 5.492364 12.660364 12.815515 23.676121 22.031516 33.078303 9.153939 9.309091 20.014545 16.756364 32.457697 22.434909a99.514182 99.514182 0 0 0 79.809939 0 104.789333 104.789333 0 0 0 33.016242-22.434909 108.295758 108.295758 0 0 0 22.000485-33.140363c5.523394-12.722424 8.316121-26.189576 8.316121-40.432485 0-14.149818-2.792727-27.648-8.316121-40.339394a107.582061 107.582061 0 0 0-22.000485-33.171394m-458.534788-2.172121a103.765333 103.765333 0 0 0-72.610909-29.758061 101.158788 101.158788 0 0 0-72.610909 29.727031c-9.557333 9.340121-17.066667 20.635152-22.062545 33.109333-5.12 12.722424-7.726545 26.220606-7.726546 40.401454 0 14.242909 2.606545 27.67903 7.726546 40.401455 5.15103 12.722424 12.474182 23.769212 22.031515 33.109333 9.526303 9.371152 20.386909 16.818424 32.426667 22.434909 12.101818 5.585455 25.506909 8.378182 40.184242 8.378182 13.963636 0 27.151515-2.730667 39.625697-8.378182 12.225939-5.461333 23.396848-13.032727 33.016242-22.434909 9.557333-9.340121 16.942545-20.417939 22.031516-33.109333 5.12-12.722424 7.757576-26.158545 7.757575-40.401455 0-14.180848-2.637576-27.67903-7.757575-40.401454a96.100848 96.100848 0 0 0-22.031516-33.109333" fill="#FF6F00" p-id="5129"></path></svg>